<?xml version="1.0" encoding="utf-8"?>
<!-- Generator: Adobe Illustrator 28.1.0, SVG Export Plug-In . SVG Version: 6.00 Build 0)  -->
<svg version="1.1" id="Layer_1" xmlns="http://www.w3.org/2000/svg" xmlns:xlink="http://www.w3.org/1999/xlink" x="0px" y="0px"
	 width="612.3px" height="515.3px" viewBox="0 0 612.3 515.3" style="enable-background:new 0 0 612.3 515.3;" xml:space="preserve"
	>
<style type="text/css">
	.st0{fill:#9391C0;}
	.st1{fill:#90B3B5;}
	.st2{fill:#032D38;}
	.st3{fill:#010101;}
	.st4{fill:#FFFFFF;}
</style>
<g>
	<path class="st3" d="M302.5,229.3c-10.8-3.6-19.7-10.1-26.3-19.2c-5.2-7.1-9-15.9-11.3-26c0,0-0.1-0.4-0.2-1.1l0-0.2v0
		c-0.4-1.9-1.1-5.7-1.7-10.8l0-0.4c0-0.2-0.1-0.4-0.1-0.7l0-0.1c-0.1-0.7-0.1-1.4-0.2-2l0,0c-0.6-8.2-0.1-13.8-0.1-14l0.2-2.3
		l2.3,0.2c18.8,1.8,34.9-10.8,36.7-12.2l1.5-1.2l1.4,1.2c0.5,0.4,5,4,11.8,7.2c8.6,4.1,17,5.7,24.9,5l2.3-0.2l0.2,2.3
		c0,0.2,0.5,5.8-0.1,14l0,0.5c0,0.5-0.1,1.1-0.1,1.6l0,0.3c0,0.2-0.1,0.5-0.1,0.7c-0.6,5.7-1.3,9.1-1.7,10.8l-0.1,0.3
		c-0.1,0.6-0.2,0.9-0.3,1.1c-2.3,10.1-6.1,18.8-11.3,26c-6.6,9.1-15.5,15.6-26.3,19.2l-0.7,0.2L302.5,229.3z"/>
	<g>
		<ellipse transform="matrix(0.7071 -0.7071 0.7071 0.7071 37.9518 197.193)" class="st3" cx="257" cy="52.8" rx="21" ry="21"/>
	</g>
	<g>
		
			<ellipse transform="matrix(0.5985 -0.8012 0.8012 0.5985 -61.5563 439.6267)" class="st3" cx="407.8" cy="281.2" rx="21" ry="21"/>
	</g>
	<path class="st3" d="M206.9,300.5c10.6-4.6,15.6-16.9,11-27.5c-4.6-10.6-16.9-15.6-27.5-11c-10.6,4.6-15.6,16.9-11,27.5
		C184,300.1,196.3,305.1,206.9,300.5z"/>
	<path class="st3" d="M132,259.5c5.3,12.4,19.1,20.8,39.7,24l1.2-7.7c-12.5-2-28.5-6.9-33.8-19.4c-7.1-16.5,6.7-40.4,34-64.8
		c16.4,13.9,36.9,27.8,60.5,40.6c1.3,14.3,3.3,27.8,5.8,40.5c-5.1,0.9-10.1,1.8-15,2.4l1.1,7.7c5.1-0.7,10.3-1.5,15.5-2.5
		c12.3,55.5,35.3,92.2,62.2,92.2c26.9,0,49.9-36.6,62.2-92.2c5.3,1,10.5,1.8,15.5,2.5l1.1-7.7c-4.9-0.7-9.9-1.5-15-2.4
		c2.5-12.7,4.5-26.3,5.8-40.5c23.6-12.8,44.1-26.7,60.5-40.6c27.3,24.4,41.1,48.3,34,64.8c-5.3,12.5-21.3,17.4-33.8,19.4l1.2,7.7
		c20.7-3.3,34.4-11.6,39.7-24c8.4-19.8-5.6-46.4-35.1-73.2c29.6-26.8,43.6-53.5,35.1-73.2c-10.6-24.7-53.3-31.5-109.1-20.9
		C353.1,36.6,330.1,0,303.2,0c-13.5,0-26.6,9.4-37.7,27.1l6.6,4.1c6.7-10.7,17.6-23.4,31.1-23.4c22.6,0,42.9,34.8,54.3,85.9
		c-17.2,3.6-35.4,8.9-54.3,15.6c-18.9-6.8-37.2-12-54.4-15.6c1.1-5,2.3-10,3.7-14.7l-7.5-2.1c-1.4,5-2.6,10.1-3.8,15.3
		C185.3,81.6,142.6,88.3,132,113c-8.4,19.8,5.6,46.4,35.1,73.2C137.6,213.1,123.5,239.7,132,259.5z M291.7,113.6
		c-5.5,2.1-11,4.4-16.6,6.7c-11.5,4.9-22.6,10.2-33.1,15.6c1.3-11.9,3-23.5,5.2-34.5C261.4,104.5,276.3,108.5,291.7,113.6z
		 M364.4,135.9c-10.5-5.4-21.5-10.6-33-15.5c-5.6-2.4-11.1-4.6-16.6-6.7c15.3-5.1,30.2-9.1,44.4-12.1
		C361.3,112.4,363.1,123.9,364.4,135.9z M374.9,186.3c0-12.5-0.5-24.7-1.3-36.5c20.6,11.6,38.8,24,53.6,36.5
		c-14.8,12.4-33,24.9-53.6,36.5C374.5,211,374.9,198.8,374.9,186.3z M372.8,140.3c-1.3-14.2-3.3-27.7-5.8-40.4
		c51.4-9.6,91.4-4.6,100.3,16.2c7.1,16.5-6.7,40.4-34,64.8C416.9,167,396.4,153.2,372.8,140.3z M359.2,271.1
		c-14.4-3-29.3-7.1-44.4-12.2c5.6-2.1,11.1-4.4,16.7-6.8c11.5-4.9,22.5-10.1,33-15.5C363.1,248.7,361.3,260.2,359.2,271.1z
		 M248.9,278.7c17.5-3.7,35.8-8.9,54.3-15.5c18.5,6.6,36.8,11.8,54.3,15.5c-11.4,51.1-31.7,86-54.3,86
		C280.6,364.7,260.3,329.9,248.9,278.7z M242.1,236.6c10.5,5.4,21.5,10.6,33,15.5c5.6,2.4,11.1,4.6,16.7,6.8
		c-15.1,5.1-30.1,9.1-44.4,12.2C245.1,260.2,243.4,248.7,242.1,236.6z M239.4,186.3c0-14,0.6-27.7,1.7-41
		c11.7-6.3,24.1-12.2,37-17.8c8.4-3.6,16.8-6.9,25.1-9.9c8.3,3,16.7,6.3,25.1,9.9c12.9,5.5,25.3,11.5,37,17.7
		c1.2,13.2,1.8,26.9,1.8,41c0,14-0.6,27.8-1.8,41c-11.7,6.3-24.1,12.2-37,17.7c-8.4,3.6-16.8,6.9-25.1,9.9c-8.3-3-16.7-6.3-25.1-9.9
		c-12.9-5.5-25.3-11.5-37-17.7C240,214,239.4,200.3,239.4,186.3z M179.3,186.3c14.8-12.4,33-24.9,53.6-36.5
		c-0.9,11.9-1.3,24.1-1.3,36.5c0,12.5,0.5,24.7,1.3,36.5C212.3,211.1,194.1,198.7,179.3,186.3z M139.1,116.1
		c8.9-20.8,48.9-25.8,100.4-16.2c-2.5,12.8-4.5,26.3-5.8,40.4c-23.6,12.8-44.1,26.7-60.5,40.6C145.8,156.5,132.1,132.7,139.1,116.1z
		"/>
	<g>
		<path class="st3" d="M124,442.2V437l4.2-0.9v-28l-4.2-0.9V402h4.2h15.1c3.1,0,5.9,0.6,8.2,1.7c2.3,1.1,4.1,2.6,5.3,4.6
			c1.2,1.9,1.9,4.2,1.9,6.8c0,2.6-0.6,4.9-1.9,6.8c-1.2,1.9-3,3.5-5.3,4.6c-2.3,1.1-5,1.6-8.2,1.6h-6.2v8l4.2,0.9v5.2H124z
			 M137.1,421.3h6.2c2.1,0,3.7-0.6,4.8-1.7c1.1-1.2,1.6-2.6,1.6-4.4c0-1.8-0.5-3.4-1.6-4.6c-1.1-1.2-2.7-1.8-4.8-1.8h-6.2V421.3z"/>
		<path class="st3" d="M175.2,442.8c-3,0-5.6-0.6-7.7-1.9c-2.1-1.3-3.8-3.1-4.9-5.4c-1.1-2.3-1.7-4.9-1.7-8V427c0-3,0.6-5.6,1.7-7.9
			c1.1-2.3,2.8-4.1,4.9-5.4c2.1-1.3,4.7-1.9,7.7-1.9c3,0,5.6,0.6,7.7,1.9c2.1,1.3,3.8,3.1,4.9,5.4c1.1,2.3,1.7,4.9,1.7,7.9v0.6
			c0,3-0.6,5.6-1.7,7.9c-1.1,2.3-2.8,4.1-4.9,5.4C180.8,442.1,178.2,442.8,175.2,442.8z M175.2,436c1.3,0,2.3-0.3,3.1-1
			c0.8-0.7,1.4-1.7,1.8-3s0.6-2.8,0.6-4.5V427c0-1.7-0.2-3.1-0.6-4.4s-1-2.2-1.8-3c-0.8-0.7-1.9-1.1-3.2-1.1c-1.3,0-2.3,0.4-3.1,1.1
			c-0.8,0.7-1.4,1.7-1.8,3s-0.6,2.7-0.6,4.4v0.6c0,1.7,0.2,3.2,0.6,4.5c0.4,1.3,1,2.3,1.8,2.9C172.9,435.7,173.9,436,175.2,436z"/>
		<path class="st3" d="M205.9,442.8c-2.3,0-4.4-0.2-6.4-0.6c-2-0.4-3.8-1-5.5-1.8l-0.1-8.9h6.1l1.1,4.3c0.5,0.3,1.1,0.5,1.8,0.7
			s1.5,0.3,2.4,0.3c1.7,0,2.8-0.3,3.5-0.8c0.7-0.5,1-1.1,1-1.9c0-0.7-0.4-1.4-1.1-2c-0.7-0.6-2.2-1.1-4.5-1.5
			c-3.5-0.7-6.1-1.9-7.8-3.5c-1.7-1.6-2.5-3.6-2.5-6.1c0-1.7,0.4-3.2,1.2-4.6c0.8-1.4,2.1-2.5,3.8-3.4c1.7-0.9,4-1.3,6.8-1.3
			c2.2,0,4.3,0.2,6.3,0.6c2,0.4,3.6,0.9,4.9,1.6l0,8.6h-6.1l-0.8-3.9c-0.5-0.3-1-0.6-1.6-0.7c-0.6-0.2-1.3-0.2-2-0.2
			c-1.3,0-2.3,0.3-3,0.8c-0.7,0.5-1,1.2-1,1.9c0,0.5,0.1,0.9,0.4,1.3c0.3,0.4,0.8,0.8,1.5,1.2s1.9,0.7,3.3,1.1
			c3.6,0.8,6.2,1.9,7.9,3.2c1.7,1.4,2.6,3.4,2.6,6c0,2.9-1,5.1-3.1,6.9C213,441.9,209.9,442.8,205.9,442.8z"/>
		<path class="st3" d="M233.6,442.8c-2.9,0-5.2-0.8-6.8-2.4c-1.6-1.6-2.3-4.1-2.3-7.6v-14.3h-3.9v-6.2h3.9V405h8.8v7.3h5.2v6.2h-5.2
			v14.3c0,1,0.2,1.8,0.7,2.2c0.5,0.4,1.1,0.7,1.9,0.7c0.4,0,0.8,0,1.2-0.1c0.4,0,0.8-0.1,1.2-0.2l0.7,6.5c-0.8,0.2-1.7,0.4-2.6,0.6
			C235.5,442.7,234.5,442.8,233.6,442.8z"/>
		<path class="st3" d="M243.6,428.3v-6.8h16.2v6.8H243.6z"/>
		<path class="st3" d="M299,450.3l-11.9-7.8c-0.6,0.1-1.3,0.2-1.9,0.3c-0.7,0.1-1.3,0.1-1.9,0.1c-2.8,0-5.3-0.5-7.6-1.5
			c-2.3-1-4.2-2.4-5.9-4.3c-1.6-1.8-2.9-4-3.8-6.5c-0.9-2.5-1.4-5.2-1.4-8.1v-0.6c0-2.9,0.5-5.6,1.4-8.1c0.9-2.5,2.2-4.6,3.8-6.5
			c1.6-1.8,3.6-3.3,5.9-4.3c2.3-1,4.8-1.5,7.5-1.5c2.7,0,5.2,0.5,7.5,1.5s4.3,2.4,6,4.3c1.7,1.8,3,4,3.9,6.5
			c0.9,2.5,1.4,5.2,1.4,8.1v0.6c0,3.4-0.7,6.6-2.1,9.5c-1.4,2.9-3.2,5.2-5.4,7.1l8.7,5.2L299,450.3z M283.3,436c2.2,0,4-0.6,5.5-1.7
			c1.5-1.1,2.6-2.7,3.3-4.7c0.8-2,1.1-4.4,1.1-7.1v-0.7c0-2.7-0.4-5-1.2-7c-0.8-2-1.9-3.6-3.4-4.7c-1.5-1.1-3.3-1.7-5.5-1.7
			c-2.2,0-4,0.6-5.5,1.7c-1.4,1.1-2.5,2.7-3.2,4.7c-0.7,2-1,4.4-1,7.1v0.7c0,2.7,0.4,5.1,1.1,7.1c0.7,2,1.8,3.6,3.3,4.8
			C279.3,435.4,281.1,436,283.3,436z"/>
		<path class="st3" d="M317.6,442.8c-3.1,0-5.6-1-7.4-3c-1.8-2-2.7-5-2.7-9.2v-12.2l-3.2-0.9v-5.3h3.2h8.9v18.4c0,1.8,0.3,3.1,1,4
			c0.7,0.8,1.7,1.3,3.1,1.3c1,0,1.8-0.2,2.6-0.6c0.8-0.4,1.5-0.9,2.1-1.6v-15.3l-3.4-0.9v-5.3h3.4h8.9v23.8l3.7,0.9v5.2h-11.4
			l-0.6-3.6c-1,1.3-2.1,2.4-3.5,3.1C320.9,442.4,319.3,442.8,317.6,442.8z"/>
		<path class="st3" d="M350.6,442.8c-2.9,0-5.3-0.8-7.1-2.4c-1.8-1.6-2.7-3.8-2.7-6.5c0-1.9,0.5-3.5,1.5-4.9c1-1.4,2.5-2.6,4.5-3.4
			s4.5-1.2,7.5-1.2h3.6v-2c0-1.3-0.4-2.4-1.1-3.3c-0.8-0.9-1.9-1.3-3.5-1.3c-0.8,0-1.4,0.1-2.1,0.3c-0.6,0.2-1.2,0.5-1.7,0.8
			l-0.6,3.9h-6.3l-0.1-8c1.6-0.8,3.3-1.5,5.2-2.1c1.8-0.6,3.9-0.8,6.2-0.8c4,0,7.1,0.9,9.5,2.8c2.3,1.8,3.5,4.5,3.5,7.9v11.6
			c0,0.4,0,0.8,0,1.2s0,0.8,0.1,1.1l3.1,0.5v5.2h-10.6c-0.2-0.4-0.5-0.9-0.7-1.5c-0.2-0.6-0.4-1.1-0.5-1.7c-0.9,1.2-2,2.1-3.2,2.8
			C353.8,442.4,352.4,442.8,350.6,442.8z M353.2,436.4c0.9,0,1.8-0.2,2.7-0.6c0.9-0.4,1.6-0.9,2.1-1.6v-4.5h-3.5
			c-1.5,0-2.7,0.3-3.5,1c-0.8,0.7-1.2,1.6-1.2,2.6c0,1,0.3,1.7,1,2.3C351.3,436.1,352.1,436.4,353.2,436.4z"/>
		<path class="st3" d="M372.1,442.2V437l3.7-0.9v-17.6l-4.2-0.9v-5.3h12.6l0.3,4.2c1-1.5,2.2-2.7,3.7-3.5c1.5-0.8,3.1-1.3,5-1.3
			c2.9,0,5.2,0.9,6.8,2.8c1.6,1.9,2.5,4.9,2.5,9v12.5l3.7,0.9v5.2h-15.7V437l3.1-0.9v-12.5c0-1.8-0.4-3.1-1.1-3.8
			c-0.7-0.8-1.8-1.1-3.1-1.1c-1,0-1.9,0.2-2.7,0.6c-0.8,0.4-1.4,1-1.9,1.8v15.1l2.9,0.9v5.2H372.1z"/>
		<path class="st3" d="M419.5,442.8c-2.9,0-5.2-0.8-6.8-2.4c-1.6-1.6-2.3-4.1-2.3-7.6v-14.3h-3.9v-6.2h3.9V405h8.8v7.3h5.2v6.2h-5.2
			v14.3c0,1,0.2,1.8,0.7,2.2c0.5,0.4,1.1,0.7,1.9,0.7c0.4,0,0.8,0,1.2-0.1c0.4,0,0.8-0.1,1.2-0.2l0.7,6.5c-0.8,0.2-1.7,0.4-2.6,0.6
			C421.3,442.7,420.4,442.8,419.5,442.8z"/>
		<path class="st3" d="M440.2,442.8c-3.1,0-5.6-1-7.4-3c-1.8-2-2.7-5-2.7-9.2v-12.2l-3.2-0.9v-5.3h3.2h8.9v18.4c0,1.8,0.3,3.1,1,4
			c0.7,0.8,1.7,1.3,3.1,1.3c1,0,1.8-0.2,2.6-0.6c0.8-0.4,1.5-0.9,2.1-1.6v-15.3l-3.4-0.9v-5.3h3.4h8.9v23.8l3.7,0.9v5.2H449
			l-0.6-3.6c-1,1.3-2.1,2.4-3.5,3.1C443.5,442.4,442,442.8,440.2,442.8z"/>
		<path class="st3" d="M462.7,442.2V437l3.7-0.9v-17.6l-4.3-0.9v-5.3h12.5l0.3,3.9c1-1.4,2.2-2.5,3.6-3.3c1.4-0.8,3.1-1.2,4.9-1.2
			c1.9,0,3.5,0.4,4.8,1.2c1.4,0.8,2.4,2.1,3.1,3.8c0.9-1.6,2.1-2.8,3.5-3.7c1.4-0.9,3.1-1.3,5.1-1.3c2.9,0,5.2,1,6.9,3
			c1.7,2,2.5,5,2.5,9.1v12.3l3.7,0.9v5.2h-15.7V437l3.1-0.9v-12.3c0-2-0.3-3.3-0.9-4.1s-1.5-1.1-2.8-1.1c-1,0-2,0.3-2.7,0.8
			c-0.8,0.5-1.4,1.2-1.8,2.1v14.6l2.9,0.9v5.2h-14.6V437l2.9-0.9v-12.3c0-1.9-0.3-3.3-1-4.1c-0.6-0.8-1.6-1.1-2.8-1.1
			c-1,0-1.9,0.2-2.6,0.6c-0.8,0.4-1.4,1-1.9,1.7v15.2l3.2,0.9v5.2H462.7z"/>
		<path class="st3" d="M19.5,503.8c-3.9,0-7.3-0.8-10.2-2.4c-2.9-1.6-5.2-3.9-6.9-6.8c-1.6-3-2.5-6.5-2.5-10.6v-1.6
			c0-3.9,0.8-7.3,2.3-10.3c1.5-3,3.7-5.3,6.6-7c2.9-1.7,6.3-2.6,10.2-2.6c2.8,0,5.4,0.4,7.8,1.1c2.5,0.8,4.7,2,6.7,3.7v10h-6.5
			l-0.9-6c-0.6-0.4-1.3-0.8-2-1.1c-0.7-0.3-1.5-0.6-2.3-0.7c-0.8-0.2-1.7-0.2-2.6-0.2c-2.2,0-4,0.5-5.6,1.6c-1.6,1-2.8,2.5-3.7,4.5
			c-0.9,1.9-1.3,4.3-1.3,7v1.7c0,2.6,0.4,4.9,1.3,6.9c0.9,2,2.1,3.5,3.8,4.6c1.6,1.1,3.5,1.6,5.7,1.6c1.1,0,2.3-0.1,3.4-0.4
			s2.2-0.6,3.2-1l0.9-5.7h6.5v9.9c-1.6,1.1-3.6,2-6,2.7C25.3,503.4,22.6,503.8,19.5,503.8z"/>
		<path class="st3" d="M38,503.2V498l3.7-0.9v-17.6l-4.2-0.9v-5.3h12.5l0.3,3.7l0.1,0.7c0.7-1.7,1.6-2.9,2.6-3.7
			c1-0.8,2.3-1.2,3.8-1.2c0.4,0,0.9,0,1.5,0.1c0.6,0.1,1.1,0.2,1.6,0.3l-0.9,8.1l-4.1-0.2c-1.1,0-1.9,0.1-2.5,0.5
			c-0.6,0.3-1.2,0.9-1.7,1.6v13.9l3.7,0.9v5.2H38z"/>
		<path class="st3" d="M71.2,515.3c-0.8,0-1.5-0.1-2.4-0.2c-0.8-0.1-1.6-0.3-2.4-0.6l1-6.4c0.3,0.1,0.7,0.1,1.1,0.2s0.7,0.1,1.1,0.1
			c1.2,0,2.2-0.3,3.1-0.8c0.9-0.5,1.5-1.3,1.8-2.3l0.5-1.5l-9.8-24.7l-3.8-0.6v-5.3h16.9v5.3l-3.7,0.6l4.3,12.6l0.3,0.9h0.2
			l5.1-13.6l-3.5-0.5v-5.3h15.5v5.3l-3.5,0.5l-11.3,28.5c-0.5,1.3-1.2,2.6-2.1,3.8c-0.9,1.2-2,2.1-3.4,2.8
			C74.9,514.9,73.2,515.3,71.2,515.3z"/>
		<path class="st3" d="M98.6,514.7v-5.3l3.8-0.9v-29.1l-4.3-0.9v-5.3h12.5l0.4,3.4c0.8-1.3,1.8-2.3,3-2.9c1.2-0.7,2.7-1,4.4-1
			c2.4,0,4.4,0.7,6.1,2c1.7,1.3,3,3.1,3.9,5.5c0.9,2.3,1.4,5.1,1.4,8.2v0.6c0,3-0.5,5.6-1.4,7.8c-0.9,2.2-2.2,4-3.9,5.2
			c-1.7,1.2-3.8,1.8-6.2,1.8c-1.5,0-2.9-0.3-4.1-0.8c-1.2-0.6-2.2-1.4-3-2.5v8.1l3.6,0.9v5.3H98.6z M115.7,497.1
			c1.9,0,3.3-0.7,4.1-2.1c0.8-1.4,1.2-3.4,1.2-5.9v-0.6c0-1.7-0.2-3.3-0.5-4.6c-0.4-1.3-0.9-2.3-1.7-3.1c-0.8-0.7-1.8-1.1-3.1-1.1
			c-1,0-1.8,0.2-2.6,0.6c-0.8,0.4-1.4,1.1-1.8,1.9v12.6c0.4,0.7,1,1.3,1.8,1.7C113.8,496.9,114.7,497.1,115.7,497.1z"/>
		<path class="st3" d="M145.4,503.8c-2.9,0-5.2-0.8-6.8-2.4c-1.6-1.6-2.3-4.1-2.3-7.6v-14.3h-3.9v-6.2h3.9V466h8.8v7.3h5.2v6.2h-5.2
			v14.3c0,1,0.2,1.8,0.7,2.2c0.5,0.4,1.1,0.7,1.9,0.7c0.4,0,0.8,0,1.2-0.1c0.4,0,0.8-0.1,1.2-0.2l0.7,6.5c-0.8,0.2-1.7,0.4-2.6,0.6
			C147.2,503.8,146.3,503.8,145.4,503.8z"/>
		<path class="st3" d="M167.3,503.8c-3,0-5.6-0.6-7.7-1.9c-2.1-1.3-3.8-3.1-4.9-5.4c-1.1-2.3-1.7-4.9-1.7-8V488c0-3,0.6-5.6,1.7-7.9
			c1.1-2.3,2.8-4.1,4.9-5.4c2.1-1.3,4.7-1.9,7.7-1.9c3,0,5.6,0.6,7.7,1.9c2.1,1.3,3.8,3.1,4.9,5.4c1.1,2.3,1.7,4.9,1.7,7.9v0.6
			c0,3-0.6,5.6-1.7,7.9c-1.1,2.3-2.8,4.1-4.9,5.4C172.9,503.2,170.3,503.8,167.3,503.8z M167.3,497.1c1.3,0,2.3-0.3,3.1-1
			c0.8-0.7,1.4-1.7,1.8-3c0.4-1.3,0.6-2.8,0.6-4.5V488c0-1.7-0.2-3.1-0.6-4.4s-1-2.2-1.8-3c-0.8-0.7-1.9-1.1-3.2-1.1
			c-1.3,0-2.3,0.4-3.1,1.1c-0.8,0.7-1.4,1.7-1.8,3s-0.6,2.7-0.6,4.4v0.6c0,1.7,0.2,3.2,0.6,4.5s1,2.3,1.8,2.9
			C164.9,496.7,166,497.1,167.3,497.1z"/>
		<path class="st3" d="M198.3,515.3c-1.5,0-3.3-0.2-5.2-0.6c-1.9-0.4-3.6-0.9-5.1-1.7l1.5-6.2c1.4,0.6,2.8,1,4.2,1.3
			c1.5,0.3,2.8,0.5,4,0.5c2.1,0,3.6-0.6,4.6-1.7c1-1.2,1.5-2.7,1.5-4.7v-1.7c-0.9,1.1-1.9,1.9-3,2.5c-1.1,0.6-2.5,0.9-3.9,0.9
			c-2.4,0-4.5-0.6-6.3-1.8c-1.7-1.2-3.1-2.9-4-5.2c-0.9-2.2-1.4-4.8-1.4-7.8v-0.6c0-3.1,0.5-5.9,1.4-8.2c0.9-2.3,2.2-4.2,3.9-5.5
			c1.7-1.3,3.7-2,6.1-2c1.8,0,3.3,0.4,4.5,1.1s2.3,1.8,3.2,3.2l0.6-3.8h7.8v28.8c0,2.6-0.6,4.9-1.7,6.9c-1.2,2-2.8,3.5-5,4.6
			C203.8,514.8,201.2,515.3,198.3,515.3z M199.3,497c1,0,1.8-0.2,2.6-0.5c0.7-0.4,1.4-0.9,1.8-1.6v-12.7c-0.5-0.8-1.1-1.4-1.8-1.8
			c-0.8-0.4-1.6-0.6-2.6-0.6c-1.3,0-2.3,0.4-3.1,1.1c-0.8,0.7-1.3,1.8-1.7,3.1c-0.4,1.3-0.5,2.8-0.5,4.6v0.6c0,2.5,0.4,4.5,1.2,5.9
			C196,496.3,197.4,497,199.3,497z M211.6,479.6l-3.9-6.2h8.4v5.3L211.6,479.6z"/>
		<path class="st3" d="M219.3,503.2V498l3.7-0.9v-17.6l-4.2-0.9v-5.3h12.5l0.3,3.7l0.1,0.7c0.7-1.7,1.6-2.9,2.6-3.7
			c1-0.8,2.3-1.2,3.8-1.2c0.4,0,0.9,0,1.5,0.1c0.6,0.1,1.1,0.2,1.6,0.3l-0.9,8.1l-4.1-0.2c-1.1,0-1.9,0.1-2.5,0.5
			c-0.6,0.3-1.2,0.9-1.7,1.6v13.9l3.7,0.9v5.2H219.3z"/>
		<path class="st3" d="M252.6,503.8c-2.9,0-5.3-0.8-7.1-2.4c-1.8-1.6-2.7-3.8-2.7-6.5c0-1.9,0.5-3.5,1.5-4.9c1-1.4,2.5-2.6,4.5-3.4
			s4.5-1.2,7.5-1.2h3.6v-2c0-1.3-0.4-2.4-1.1-3.3c-0.8-0.9-1.9-1.3-3.5-1.3c-0.8,0-1.4,0.1-2.1,0.3c-0.6,0.2-1.2,0.5-1.7,0.8
			l-0.6,3.9h-6.3l-0.1-8c1.6-0.8,3.3-1.5,5.2-2.1c1.8-0.6,3.9-0.8,6.2-0.8c4,0,7.1,0.9,9.5,2.8c2.3,1.8,3.5,4.5,3.5,7.9v11.6
			c0,0.4,0,0.8,0,1.2c0,0.4,0,0.8,0.1,1.1l3.1,0.5v5.2h-10.6c-0.2-0.4-0.5-0.9-0.7-1.5c-0.2-0.6-0.4-1.1-0.5-1.7
			c-0.9,1.2-2,2.1-3.2,2.8C255.8,503.5,254.4,503.8,252.6,503.8z M255.2,497.4c0.9,0,1.8-0.2,2.7-0.6c0.9-0.4,1.6-0.9,2.1-1.6v-4.5
			h-3.5c-1.5,0-2.7,0.3-3.5,1c-0.8,0.7-1.2,1.6-1.2,2.6c0,1,0.3,1.7,1,2.3C253.3,497.1,254.1,497.4,255.2,497.4z"/>
		<path class="st3" d="M274.5,514.7v-5.3l3.8-0.9v-29.1l-4.3-0.9v-5.3h12.5l0.4,3.4c0.8-1.3,1.8-2.3,3-2.9c1.2-0.7,2.7-1,4.4-1
			c2.4,0,4.4,0.7,6.1,2c1.7,1.3,3,3.1,3.9,5.5c0.9,2.3,1.4,5.1,1.4,8.2v0.6c0,3-0.5,5.6-1.4,7.8c-0.9,2.2-2.2,4-3.9,5.2
			c-1.7,1.2-3.8,1.8-6.2,1.8c-1.5,0-2.9-0.3-4.1-0.8c-1.2-0.6-2.2-1.4-3-2.5v8.1l3.6,0.9v5.3H274.5z M291.6,497.1
			c1.9,0,3.3-0.7,4.1-2.1c0.8-1.4,1.2-3.4,1.2-5.9v-0.6c0-1.7-0.2-3.3-0.5-4.6c-0.4-1.3-0.9-2.3-1.7-3.1c-0.8-0.7-1.8-1.1-3.1-1.1
			c-1,0-1.8,0.2-2.6,0.6c-0.8,0.4-1.4,1.1-1.8,1.9v12.6c0.4,0.7,1,1.3,1.8,1.7S290.6,497.1,291.6,497.1z"/>
		<path class="st3" d="M308.2,503.2V498l3.7-0.9v-30.8l-4.2-0.9v-5.3h13.1v17c0.9-1.4,2.1-2.4,3.4-3.2c1.4-0.8,2.9-1.1,4.7-1.1
			c2.9,0,5.3,1,7,3c1.7,2,2.6,5.2,2.6,9.4v11.9l3.7,0.9v5.2h-15.7V498l3.1-0.9v-12c0-2-0.4-3.5-1.1-4.3c-0.7-0.8-1.8-1.2-3.2-1.2
			c-1,0-1.9,0.2-2.6,0.6c-0.8,0.4-1.4,0.9-1.9,1.7v15.2l3.2,0.9v5.2H308.2z"/>
		<path class="st3" d="M351.5,515.3c-0.8,0-1.5-0.1-2.4-0.2c-0.8-0.1-1.6-0.3-2.4-0.6l1-6.4c0.3,0.1,0.7,0.1,1.1,0.2
			s0.7,0.1,1.1,0.1c1.2,0,2.2-0.3,3.1-0.8c0.9-0.5,1.5-1.3,1.8-2.3l0.5-1.5l-9.8-24.7l-3.8-0.6v-5.3h16.9v5.3l-3.7,0.6l4.3,12.6
			l0.3,0.9h0.2l5.1-13.6l-3.5-0.5v-5.3h15.5v5.3l-3.5,0.5l-11.3,28.5c-0.5,1.3-1.2,2.6-2.1,3.8c-0.9,1.2-2,2.1-3.4,2.8
			C355.3,514.9,353.6,515.3,351.5,515.3z"/>
		<path class="st3" d="M392,503.2V498l2.8-0.4l12.4-34.5h9.4l12.4,34.5l2.8,0.4v5.2h-14.4V498l2.7-0.5l-1.5-4.9h-13.5l-1.5,4.9
			l2.7,0.5v5.2H392z M407.1,486.2h9.6l-4.3-13l-0.4-1.3h-0.2l-0.4,1.4L407.1,486.2z"/>
		<path class="st3" d="M433.8,503.2V498l3.7-0.9v-30.8l-4.2-0.9v-5.3h13.1v37l3.7,0.9v5.2H433.8z"/>
		<path class="st3" d="M451.9,503.2V498l3.7-0.9v-30.8l-4.2-0.9v-5.3h13.1v37l3.7,0.9v5.2H451.9z"/>
		<path class="st3" d="M470.1,503.2V498l3.7-0.9v-17.6l-4.2-0.9v-5.3h13.1v23.8l3.7,0.9v5.2H470.1z M473.6,467.4v-7.2h9.2v7.2H473.6
			z"/>
		<path class="st3" d="M498.8,503.8c-2.9,0-5.3-0.8-7.1-2.4c-1.8-1.6-2.7-3.8-2.7-6.5c0-1.9,0.5-3.5,1.5-4.9c1-1.4,2.5-2.6,4.5-3.4
			s4.5-1.2,7.5-1.2h3.6v-2c0-1.3-0.4-2.4-1.1-3.3c-0.8-0.9-1.9-1.3-3.5-1.3c-0.8,0-1.4,0.1-2.1,0.3c-0.6,0.2-1.2,0.5-1.7,0.8
			l-0.6,3.9h-6.3l-0.1-8c1.6-0.8,3.3-1.5,5.2-2.1c1.8-0.6,3.9-0.8,6.2-0.8c4,0,7.1,0.9,9.5,2.8c2.3,1.8,3.5,4.5,3.5,7.9v11.6
			c0,0.4,0,0.8,0,1.2c0,0.4,0,0.8,0.1,1.1l3.1,0.5v5.2h-10.6c-0.2-0.4-0.5-0.9-0.7-1.5c-0.2-0.6-0.4-1.1-0.5-1.7
			c-0.9,1.2-2,2.1-3.2,2.8C502.1,503.5,500.6,503.8,498.8,503.8z M501.4,497.4c0.9,0,1.8-0.2,2.7-0.6c0.9-0.4,1.6-0.9,2.1-1.6v-4.5
			h-3.5c-1.5,0-2.7,0.3-3.5,1c-0.8,0.7-1.2,1.6-1.2,2.6c0,1,0.3,1.7,1,2.3C499.5,497.1,500.3,497.4,501.4,497.4z"/>
		<path class="st3" d="M520.4,503.2V498l3.7-0.9v-17.6l-4.2-0.9v-5.3h12.6l0.3,4.2c1-1.5,2.2-2.7,3.7-3.5c1.5-0.8,3.1-1.3,5-1.3
			c2.9,0,5.2,0.9,6.8,2.8c1.6,1.9,2.5,4.9,2.5,9v12.5l3.7,0.9v5.2h-15.7V498l3.1-0.9v-12.5c0-1.8-0.4-3.1-1.1-3.8
			c-0.7-0.8-1.8-1.1-3.1-1.1c-1,0-1.9,0.2-2.7,0.6c-0.8,0.4-1.4,1-1.9,1.8v15.1l2.9,0.9v5.2H520.4z"/>
		<path class="st3" d="M570.4,503.8c-2.9,0-5.4-0.7-7.5-1.9c-2.1-1.3-3.7-3.1-4.9-5.4c-1.1-2.3-1.7-4.9-1.7-7.8V488
			c0-3,0.6-5.6,1.8-7.9c1.2-2.3,2.8-4.1,4.9-5.4c2.1-1.3,4.6-1.9,7.4-1.9c2.8,0,5.1,0.4,7.1,1.3c2,0.8,3.6,1.8,4.8,2.8l-0.1,9h-6.6
			l-1.1-5.4c-0.4-0.4-0.9-0.7-1.4-0.9c-0.6-0.2-1.2-0.3-1.7-0.3c-1.4,0-2.6,0.3-3.5,1c-0.9,0.7-1.5,1.6-1.9,2.9
			c-0.4,1.3-0.6,2.9-0.6,4.8v0.7c0,2,0.2,3.6,0.7,4.8c0.5,1.2,1.2,2.1,2,2.7c0.8,0.6,1.7,0.8,2.6,0.8c1.3,0,2.3-0.3,3.1-1
			c0.8-0.7,1.3-1.6,1.6-2.9h7.5l0.1,0.2c-0.4,2.2-1,4.1-2,5.7c-0.9,1.6-2.2,2.7-3.9,3.5C575.2,503.4,573,503.8,570.4,503.8z"/>
		<path class="st3" d="M600.5,503.8c-2.9,0-5.4-0.6-7.6-1.9c-2.2-1.3-3.8-3-5-5.2c-1.2-2.2-1.8-4.7-1.8-7.5v-1c0-3,0.5-5.7,1.6-8
			c1.1-2.3,2.7-4.1,4.7-5.5s4.5-2,7.3-1.9c2.7,0,5,0.5,6.8,1.6c1.9,1,3.3,2.6,4.2,4.6c1,2,1.4,4.5,1.4,7.4v4.7h-17l0,0.2
			c0.1,1.1,0.5,2.1,1,3c0.5,0.9,1.2,1.6,2.2,2.1c0.9,0.5,2.1,0.8,3.4,0.8c1.4,0,2.7-0.2,3.9-0.5c1.2-0.3,2.5-0.8,3.8-1.5l2.2,5.4
			c-1.3,1-2.9,1.8-4.8,2.4S602.9,503.8,600.5,503.8z M595.4,485.4h8.8v-0.7c0-1.1-0.1-2.1-0.4-2.9c-0.3-0.8-0.7-1.4-1.3-1.8
			c-0.6-0.4-1.4-0.6-2.4-0.6c-1,0-1.9,0.3-2.5,0.8s-1.2,1.2-1.5,2.1c-0.3,0.9-0.6,1.9-0.7,3.1L595.4,485.4z"/>
	</g>
</g>
</svg>
