<?xml version="1.0" encoding="utf-8"?>
<!-- Generator: Adobe Illustrator 28.1.0, SVG Export Plug-In . SVG Version: 6.00 Build 0)  -->
<svg version="1.1" id="Layer_1" xmlns="http://www.w3.org/2000/svg" xmlns:xlink="http://www.w3.org/1999/xlink" x="0px" y="0px"
	 width="617.2px" height="661.8px" viewBox="0 0 617.2 661.8" style="enable-background:new 0 0 617.2 661.8;" xml:space="preserve"
	>
<style type="text/css">
	.st0{fill:#9391C0;}
	.st1{fill:#90B3B5;}
	.st2{fill:#032D38;}
	.st3{fill:#010101;}
	.st4{fill:#FFFFFF;}
</style>
<g>
	<path class="st3" d="M307.3,407.5c-19.2-6.4-34.9-17.9-46.7-34.1c-9.2-12.7-16-28.3-20.1-46.3c0,0-0.1-0.7-0.4-1.9l-0.1-0.4v0
		c-0.7-3.4-1.9-10.1-3-19.1L237,305c0-0.4-0.1-0.8-0.1-1.2l0-0.3c-0.1-1.2-0.2-2.4-0.3-3.6l0,0c-1.1-14.5-0.1-24.5-0.1-24.9l0.4-4.1
		l4.1,0.4c33.3,3.2,62-19.2,65.2-21.7l2.6-2.1l2.6,2.1c0.9,0.7,8.9,7.2,21,12.9c15.3,7.2,30.1,10.2,44.2,8.9l4.1-0.4l0.4,4.1
		c0,0.4,0.9,10.4-0.1,24.9l-0.1,0.9c-0.1,0.9-0.1,1.9-0.3,2.9l-0.1,0.6c0,0.4-0.1,0.8-0.1,1.2c-1.1,10.2-2.3,16.3-2.9,19.2l-0.1,0.5
		c-0.2,1-0.4,1.7-0.5,1.9c-4.1,17.9-10.9,33.5-20,46.1c-11.8,16.2-27.5,27.7-46.7,34.1l-1.3,0.4L307.3,407.5z"/>
	<g>
		
			<ellipse transform="matrix(0.7071 -0.7071 0.7071 0.7071 1.609505e-02 187.6077)" class="st3" cx="226.5" cy="93.8" rx="37.3" ry="37.3"/>
	</g>
	<g>
		
			<ellipse transform="matrix(0.5985 -0.8012 0.8012 0.5985 -201.7908 596.7021)" class="st3" cx="494.4" cy="499.7" rx="37.3" ry="37.3"/>
	</g>
	<path class="st3" d="M137.5,533.9c18.9-8.1,27.7-30,19.6-48.9c-8.1-18.9-30-27.7-48.9-19.6c-18.9,8.1-27.7,30-19.6,48.9
		C96.7,533.2,118.6,542,137.5,533.9z"/>
	<path class="st3" d="M4.3,461c9.5,22.1,33.9,36.9,70.6,42.7l2.2-13.7c-22.2-3.5-50.6-12.3-60-34.5c-12.6-29.4,11.9-71.8,60.4-115.2
		c29.2,24.8,65.6,49.4,107.5,72.2c2.4,25.3,5.9,49.5,10.3,72c-9,1.7-17.9,3.1-26.7,4.3l1.9,13.7c9-1.2,18.3-2.7,27.6-4.5
		c21.8,98.7,62.7,163.8,110.4,163.8c47.8,0,88.7-65.1,110.5-163.8c9.4,1.8,18.6,3.2,27.6,4.5l1.9-13.7c-8.7-1.2-17.6-2.6-26.7-4.3
		c4.5-22.5,7.9-46.7,10.3-72c41.9-22.8,78.3-47.4,107.5-72.2c48.6,43.4,73,85.8,60.5,115.2c-9.5,22.2-37.9,31-60,34.5l2.2,13.7
		c36.7-5.8,61.1-20.6,70.6-42.7c15-35.1-9.9-82.5-62.4-130.1c52.5-47.6,77.4-95,62.4-130.1c-18.8-43.9-94.6-55.9-193.9-37.2
		C397.2,65.1,356.4,0,308.6,0c-24.1,0-47.2,16.6-67,48.1l11.7,7.4c11.9-19,31.2-41.6,55.3-41.6c40.2,0,76.2,61.8,96.5,152.6
		c-30.5,6.5-63,15.7-96.5,27.7c-33.6-12-66.1-21.3-96.7-27.8c2-9,4.2-17.7,6.5-26.2l-13.4-3.7c-2.4,8.8-4.7,17.9-6.7,27.2
		c-99.3-18.8-175.2-6.8-194,37.2c-15,35.1,9.9,82.5,62.4,130.1C14.2,378.6-10.7,425.9,4.3,461z M288,201.8
		c-9.8,3.8-19.6,7.8-29.5,12c-20.5,8.8-40.1,18-58.8,27.7c2.3-21.2,5.4-41.7,9.2-61.2C234.2,185.6,260.8,192.8,288,201.8z
		 M417.3,241.4c-18.6-9.6-38.2-18.9-58.6-27.6c-9.9-4.2-19.7-8.2-29.5-12c27.2-9,53.7-16.2,78.8-21.5
		C411.8,199.6,415,220.1,417.3,241.4z M435.9,330.9c0-22.2-0.8-43.9-2.4-64.8c36.6,20.6,68.9,42.7,95.2,64.8
		c-26.4,22.1-58.6,44.2-95.2,64.8C435.1,374.8,435.9,353.2,435.9,330.9z M432.2,249.3c-2.4-25.3-5.8-49.3-10.3-71.8
		c91.4-17.1,162.4-8.2,178.2,28.7c12.6,29.4-11.9,71.8-60.5,115.2C510.5,296.7,474.1,272.1,432.2,249.3z M408,481.7
		c-25.5-5.4-52-12.7-78.9-21.6c9.9-3.8,19.8-7.8,29.7-12c20.4-8.7,40-18,58.6-27.6C415,441.8,411.8,462.3,408,481.7z M212.1,495.3
		c31.1-6.6,63.6-15.9,96.5-27.6c32.9,11.7,65.4,21,96.5,27.6C384.9,586.1,348.8,648,308.6,648C268.4,648,232.3,586.1,212.1,495.3z
		 M199.9,420.4c18.6,9.6,38.2,18.9,58.6,27.6c9.9,4.2,19.8,8.3,29.7,12c-26.9,9-53.4,16.2-78.9,21.6
		C205.4,462.3,202.3,441.8,199.9,420.4z M195.1,330.9c0-24.8,1-49.2,3.1-72.8C219,247,241,236.4,264,226.6
		c14.9-6.4,29.8-12.2,44.6-17.6c14.8,5.3,29.7,11.2,44.6,17.6c22.9,9.8,45,20.4,65.7,31.5c2.1,23.5,3.2,47.9,3.2,72.8
		c0,24.9-1.1,49.3-3.2,72.8c-20.8,11.1-42.8,21.7-65.7,31.5c-14.9,6.4-29.8,12.3-44.6,17.6c-14.8-5.4-29.7-11.3-44.6-17.6
		c-22.9-9.8-45-20.4-65.7-31.5C196.2,380.3,195.1,355.9,195.1,330.9z M88.4,330.9c26.4-22.1,58.7-44.2,95.2-64.8
		c-1.6,21.1-2.4,42.8-2.4,64.8c0,22.2,0.8,43.9,2.4,64.8C147.1,375.1,114.7,353,88.4,330.9z M17.1,206.3
		c15.8-37,86.9-45.8,178.4-28.7c-4.5,22.8-8,46.8-10.4,71.7c-41.9,22.8-78.4,47.4-107.5,72.2C29,278.1,4.5,235.7,17.1,206.3z"/>
</g>
</svg>
